# xmcd CD database file
#
# Track frame offsets:
#	150
#	12796
#	26786
#	40966
#	55118
#	67218
#	79808
#	92401
#	109159
#	123850
#	137424
#	151670
#	163811
#	181325
#	198416
#	212020
#	225365
#	238378
#
# Disc length: 3361 seconds
#
# Revision: 0
# Processed by: cddbd v1.4PL0 Copyright (c) Steve Scherf et al.
# Submitted via: CDex 1.50
#
DISCID=ea0d1f12
DTITLE=Dizzy Gillespie - The Quintessence cd 1
DYEAR=1900
DGENRE=Jazz
TTITLE0=Pickin' The Cabbage
TTITLE1=Little John Special
TTITLE2=I Can't Get Started
TTITLE3=Be Bop
TTITLE4=Groovin' High
TTITLE5=All The Things You Are
TTITLE6=Dizzy Atmosphere
TTITLE7=Redcross
TTITLE8=Salt Peanuts
TTITLE9=Shaw 'Nuff
TTITLE10=Hot House
TTITLE11=Mean To Me
TTITLE12=Hallelujah !
TTITLE13=Congo Blues
TTITLE14=Popity Pop
TTITLE15=Confirmation
TTITLE16=Diggin' For Diz
TTITLE17=Dynamo A
EXTD=
EXTT0=
EXTT1=
EXTT2=
EXTT3=
EXTT4=
EXTT5=
EXTT6=
EXTT7=
EXTT8=
EXTT9=
EXTT10=
EXTT11=
EXTT12=
EXTT13=
EXTT14=
EXTT15=
EXTT16=
EXTT17=
PLAYORDER=
